<svg width="141" height="48" viewBox="0 0 141 48" fill="none" xmlns="http://www.w3.org/2000/svg">
<rect width="141" height="48" rx="4" fill="#36B37F"/>
<path d="M24.5675 20.8842H26.3665C26.3122 18.9041 24.5615 17.4673 22.0501 17.4673C19.569 17.4673 17.6673 18.886 17.6673 21.017C17.6673 22.7376 18.8989 23.7457 20.885 24.283L22.3459 24.6815C23.668 25.0316 24.6883 25.4663 24.6883 26.565C24.6883 27.7724 23.5352 28.5692 21.9475 28.5692C20.5107 28.5692 19.3154 27.9293 19.2067 26.5831H17.3353C17.456 28.8228 19.1886 30.2053 21.9596 30.2053C24.8633 30.2053 26.5356 28.6779 26.5356 26.5831C26.5356 24.3555 24.5494 23.4922 22.9798 23.1058L21.7724 22.7919C20.8065 22.5444 19.5207 22.0916 19.5267 20.9084C19.5267 19.858 20.4866 19.0792 22.0079 19.0792C23.4266 19.0792 24.4347 19.7433 24.5675 20.8842ZM33.1263 30.1871C35.1487 30.1871 36.5794 29.1911 36.9899 27.6818L35.2815 27.3739C34.9555 28.2493 34.1707 28.696 33.1444 28.696C31.5989 28.696 30.5606 27.6939 30.5123 25.907H37.1046V25.267C37.1046 21.9165 35.1004 20.6065 32.9995 20.6065C30.4157 20.6065 28.7133 22.5746 28.7133 25.424C28.7133 28.3036 30.3915 30.1871 33.1263 30.1871ZM30.5183 24.5547C30.5908 23.2386 31.5446 22.0977 33.0116 22.0977C34.4121 22.0977 35.3298 23.136 35.3358 24.5547H30.5183ZM43.6138 30.1871C45.6362 30.1871 47.0669 29.1911 47.4775 27.6818L45.769 27.3739C45.443 28.2493 44.6582 28.696 43.6319 28.696C42.0865 28.696 41.0481 27.6939 40.9998 25.907H47.5922V25.267C47.5922 21.9165 45.5879 20.6065 43.487 20.6065C40.9032 20.6065 39.2008 22.5746 39.2008 25.424C39.2008 28.3036 40.8791 30.1871 43.6138 30.1871ZM41.0059 24.5547C41.0783 23.2386 42.0321 22.0977 43.4991 22.0977C44.8997 22.0977 45.8173 23.136 45.8233 24.5547H41.0059ZM55.2588 30H62.7265V28.3942H57.1242V17.6364H55.2588V30ZM65.2196 30H67.0247V20.7273H65.2196V30ZM66.1312 19.2965C66.753 19.2965 67.2722 18.8136 67.2722 18.2219C67.2722 17.6303 66.753 17.1413 66.1312 17.1413C65.5034 17.1413 64.9902 17.6303 64.9902 18.2219C64.9902 18.8136 65.5034 19.2965 66.1312 19.2965ZM77.8956 20.7273H75.9577L73.6154 27.8629H73.5188L71.1704 20.7273H69.2326L72.6012 30H74.533L77.8956 20.7273ZM83.7664 30.1871C85.7887 30.1871 87.2195 29.1911 87.63 27.6818L85.9215 27.3739C85.5955 28.2493 84.8107 28.696 83.7845 28.696C82.239 28.696 81.2007 27.6939 81.1524 25.907H87.7447V25.267C87.7447 21.9165 85.7404 20.6065 83.6396 20.6065C81.0558 20.6065 79.3534 22.5746 79.3534 25.424C79.3534 28.3036 81.0316 30.1871 83.7664 30.1871ZM81.1584 24.5547C81.2308 23.2386 82.1847 22.0977 83.6517 22.0977C85.0522 22.0977 85.9698 23.136 85.9759 24.5547H81.1584Z" fill="white"/>
<path fill-rule="evenodd" clip-rule="evenodd" d="M106 24C106 20.134 109.134 17 113 17C113.552 17 114 16.5523 114 16C114 15.4477 113.552 15 113 15C108.029 15 104 19.0294 104 24C104 28.9706 108.029 33 113 33C117.971 33 122 28.9706 122 24C122 23.4477 121.552 23 121 23C120.448 23 120 23.4477 120 24C120 27.866 116.866 31 113 31C109.134 31 106 27.866 106 24ZM117 15C116.448 15 116 15.4477 116 16C116 16.5523 116.448 17 117 17H118.586L112.293 23.2929C111.902 23.6834 111.902 24.3166 112.293 24.7071C112.683 25.0976 113.317 25.0976 113.707 24.7071L120 18.4142V20C120 20.5523 120.448 21 121 21C121.552 21 122 20.5523 122 20V16C122 15.4477 121.552 15 121 15H117Z" fill="white"/>
</svg>
