<svg width="158" height="48" viewBox="0 0 158 48" fill="none" xmlns="http://www.w3.org/2000/svg">
<rect width="158" height="48" rx="4" fill="#36B37F"/>
<path d="M20.5546 20.8842H22.3536C22.2993 18.9041 20.5486 17.4673 18.0372 17.4673C15.556 17.4673 13.6544 18.886 13.6544 21.017C13.6544 22.7376 14.8859 23.7457 16.8721 24.283L18.333 24.6815C19.6551 25.0316 20.6753 25.4663 20.6753 26.565C20.6753 27.7724 19.5223 28.5692 17.9346 28.5692C16.4978 28.5692 15.3025 27.9293 15.1938 26.5831H13.3224C13.4431 28.8228 15.1757 30.2053 17.9467 30.2053C20.8504 30.2053 22.5227 28.6779 22.5227 26.5831C22.5227 24.3555 20.5365 23.4922 18.9669 23.1058L17.7595 22.7919C16.7936 22.5444 15.5077 22.0916 15.5138 20.9084C15.5138 19.858 16.4736 19.0792 17.995 19.0792C19.4136 19.0792 20.4218 19.7433 20.5546 20.8842ZM29.1134 30.1871C31.1357 30.1871 32.5665 29.1911 32.977 27.6818L31.2685 27.3739C30.9425 28.2493 30.1577 28.696 29.1315 28.696C27.586 28.696 26.5477 27.6939 26.4994 25.907H33.0917V25.267C33.0917 21.9165 31.0874 20.6065 28.9866 20.6065C26.4028 20.6065 24.7004 22.5746 24.7004 25.424C24.7004 28.3036 26.3786 30.1871 29.1134 30.1871ZM26.5054 24.5547C26.5778 23.2386 27.5317 22.0977 28.9986 22.0977C30.3992 22.0977 31.3168 23.136 31.3229 24.5547H26.5054ZM39.6009 30.1871C41.6233 30.1871 43.054 29.1911 43.4645 27.6818L41.7561 27.3739C41.4301 28.2493 40.6453 28.696 39.619 28.696C38.0735 28.696 37.0352 27.6939 36.9869 25.907H43.5792V25.267C43.5792 21.9165 41.575 20.6065 39.4741 20.6065C36.8903 20.6065 35.1879 22.5746 35.1879 25.424C35.1879 28.3036 36.8662 30.1871 39.6009 30.1871ZM36.9929 24.5547C37.0654 23.2386 38.0192 22.0977 39.4862 22.0977C40.8868 22.0977 41.8044 23.136 41.8104 24.5547H36.9929ZM57.9891 20.8842H59.7881C59.7338 18.9041 57.9831 17.4673 55.4717 17.4673C52.9906 17.4673 51.0889 18.886 51.0889 21.017C51.0889 22.7376 52.3205 23.7457 54.3066 24.283L55.7676 24.6815C57.0896 25.0316 58.1099 25.4663 58.1099 26.565C58.1099 27.7724 56.9568 28.5692 55.3691 28.5692C53.9323 28.5692 52.737 27.9293 52.6283 26.5831H50.7569C50.8776 28.8228 52.6102 30.2053 55.3812 30.2053C58.285 30.2053 59.9572 28.6779 59.9572 26.5831C59.9572 24.3555 57.971 23.4922 56.4014 23.1058L55.194 22.7919C54.2281 22.5444 52.9423 22.0916 52.9483 20.9084C52.9483 19.858 53.9082 19.0792 55.4295 19.0792C56.8482 19.0792 57.8563 19.7433 57.9891 20.8842ZM66.4573 30.1871C69.0713 30.1871 70.7798 28.2734 70.7798 25.4059C70.7798 22.5202 69.0713 20.6065 66.4573 20.6065C63.8433 20.6065 62.1349 22.5202 62.1349 25.4059C62.1349 28.2734 63.8433 30.1871 66.4573 30.1871ZM66.4634 28.6719C64.7549 28.6719 63.958 27.1808 63.958 25.3999C63.958 23.625 64.7549 22.1158 66.4634 22.1158C68.1597 22.1158 68.9566 23.625 68.9566 25.3999C68.9566 27.1808 68.1597 28.6719 66.4634 28.6719ZM79.1785 26.1545C79.1846 27.7301 78.0134 28.4787 76.9992 28.4787C75.8824 28.4787 75.1096 27.6697 75.1096 26.408V20.7273H73.3046V26.6254C73.3046 28.9254 74.5663 30.1207 76.3472 30.1207C77.7417 30.1207 78.6895 29.3842 79.1182 28.3942H79.2148V30H80.9896V20.7273H79.1785V26.1545ZM83.9249 30H85.73V24.3374C85.73 23.1239 86.6657 22.2486 87.9455 22.2486C88.3198 22.2486 88.7424 22.315 88.8873 22.3572V20.6307C88.7062 20.6065 88.35 20.5884 88.1206 20.5884C87.034 20.5884 86.1043 21.2042 85.7662 22.2003H85.6696V20.7273H83.9249V30ZM94.5332 30.1871C96.7246 30.1871 98.1433 28.8711 98.3425 27.0661H96.5858C96.3564 28.0682 95.5776 28.6598 94.5453 28.6598C93.018 28.6598 92.0339 27.386 92.0339 25.3636C92.0339 23.3775 93.0361 22.1278 94.5453 22.1278C95.6923 22.1278 96.3926 22.8523 96.5858 23.7216H98.3425C98.1494 21.8501 96.622 20.6065 94.5151 20.6065C91.9011 20.6065 90.2108 22.5746 90.2108 25.4059C90.2108 28.201 91.8408 30.1871 94.5332 30.1871ZM104.779 30.1871C106.802 30.1871 108.232 29.1911 108.643 27.6818L106.934 27.3739C106.608 28.2493 105.824 28.696 104.797 28.696C103.252 28.696 102.214 27.6939 102.165 25.907H108.758V25.267C108.758 21.9165 106.753 20.6065 104.653 20.6065C102.069 20.6065 100.366 22.5746 100.366 25.424C100.366 28.3036 102.045 30.1871 104.779 30.1871ZM102.171 24.5547C102.244 23.2386 103.198 22.0977 104.665 22.0977C106.065 22.0977 106.983 23.136 106.989 24.5547H102.171Z" fill="white"/>
<g clip-path="url(#clip0_48_2221)">
<path d="M142.999 21.4611C142.999 20.3212 142.633 19.2504 141.934 18.3178C142.201 17.4197 142.267 16.2798 142.201 14.9672C142.167 14.4145 141.735 14 141.203 14C140.903 14 138.374 14.0345 136.91 15.3817C135.646 15.1399 134.315 15.1399 133.018 15.3817C131.587 14.0345 129.058 14 128.726 14C128.193 14 127.761 14.4145 127.727 14.9672C127.628 16.2798 127.727 17.4197 127.994 18.3178C127.295 19.285 126.929 20.3558 126.929 21.4611C126.929 23.8791 128.726 26.0553 131.454 27.0915C131.354 27.2988 131.288 27.5406 131.221 27.7824C128.326 27.4715 126.962 24.7427 126.896 24.639C126.663 24.1209 126.064 23.9136 125.565 24.19C125.066 24.4318 124.866 25.0535 125.132 25.5717C125.199 25.7444 127.029 29.4404 131.055 29.8549V32.9637C131.055 33.5509 131.487 34 132.053 34H137.875C138.441 34 138.873 33.5509 138.873 32.9637V28.8532C138.873 28.2314 138.74 27.6442 138.507 27.1261C141.203 26.0553 142.999 23.9136 142.999 21.4611Z" fill="white"/>
</g>
<defs>
<clipPath id="clip0_48_2221">
<rect width="18" height="20" fill="white" transform="translate(125 14)"/>
</clipPath>
</defs>
</svg>
